<?xml version="1.0" encoding="UTF-8" standalone="no"?>
<!DOCTYPE svg PUBLIC "-//W3C//DTD SVG 1.1//EN"
 "http://www.w3.org/Graphics/SVG/1.1/DTD/svg11.dtd">
<!-- Generated by graphviz version 2.40.1 (20161225.0304)
 -->
<!-- Title: state transitions Pages: 1 -->
<svg width="332pt" height="450pt"
 viewBox="0.00 0.00 331.92 450.00" xmlns="http://www.w3.org/2000/svg" xmlns:xlink="http://www.w3.org/1999/xlink">
<g id="graph0" class="graph" transform="scale(1 1) rotate(0) translate(4 446)">
<title>state transitions</title>
<polygon fill="#ffffff" stroke="transparent" points="-4,4 -4,-446 327.923,-446 327.923,4 -4,4"/>
<!-- initial -->
<g id="node1" class="node">
<title>initial</title>
<ellipse fill="#000000" stroke="#000000" stroke-width="2" cx="139" cy="-436.5" rx="5.5" ry="5.5"/>
</g>
<!-- backlog -->
<g id="node2" class="node">
<title>backlog</title>
<polygon fill="transparent" stroke="transparent" stroke-width="2" points="170.5,-403 107.5,-403 107.5,-367 170.5,-367 170.5,-403"/>
<text text-anchor="start" x="118.827" y="-381.2" font-family="Helvetica,sans-Serif" font-size="12.00" fill="#000000">backlog</text>
<path fill="none" stroke="#000000" stroke-width="2" d="M119.8333,-368C119.8333,-368 158.1667,-368 158.1667,-368 163.8333,-368 169.5,-373.6667 169.5,-379.3333 169.5,-379.3333 169.5,-390.6667 169.5,-390.6667 169.5,-396.3333 163.8333,-402 158.1667,-402 158.1667,-402 119.8333,-402 119.8333,-402 114.1667,-402 108.5,-396.3333 108.5,-390.6667 108.5,-390.6667 108.5,-379.3333 108.5,-379.3333 108.5,-373.6667 114.1667,-368 119.8333,-368"/>
</g>
<!-- initial&#45;&gt;backlog -->
<g id="edge1" class="edge">
<title>initial&#45;&gt;backlog</title>
<path fill="none" stroke="#000000" d="M139,-430.9886C139,-426.6293 139,-420.1793 139,-413.4801"/>
<polygon fill="#000000" stroke="#000000" points="142.5001,-413.0122 139,-403.0122 135.5001,-413.0122 142.5001,-413.0122"/>
<text text-anchor="middle" x="140.3895" y="-414" font-family="Helvetica,sans-Serif" font-size="10.00" fill="#000000"> </text>
</g>
<!-- doing -->
<g id="node3" class="node">
<title>doing</title>
<polygon fill="transparent" stroke="transparent" stroke-width="2" points="198,-339 80,-339 80,-273 198,-273 198,-339"/>
<text text-anchor="start" x="124.327" y="-322.2" font-family="Helvetica,sans-Serif" font-size="12.00" fill="#000000">doing</text>
<text text-anchor="start" x="85.6522" y="-302.2" font-family="Helvetica,sans-Serif" font-size="12.00" fill="#000000">entry/ create branch</text>
<text text-anchor="start" x="86" y="-282.2" font-family="Helvetica,sans-Serif" font-size="12.00" fill="#000000">exit/ submit PR</text>
<polygon fill="#000000" stroke="#000000" points="80,-316 80,-316 198,-316 198,-316 80,-316"/>
<path fill="none" stroke="#000000" stroke-width="2" d="M93,-274C93,-274 185,-274 185,-274 191,-274 197,-280 197,-286 197,-286 197,-326 197,-326 197,-332 191,-338 185,-338 185,-338 93,-338 93,-338 87,-338 81,-332 81,-326 81,-326 81,-286 81,-286 81,-280 87,-274 93,-274"/>
</g>
<!-- backlog&#45;&gt;doing -->
<g id="edge2" class="edge">
<title>backlog&#45;&gt;doing</title>
<path fill="none" stroke="#000000" d="M139,-366.6772C139,-361.4212 139,-355.4549 139,-349.3649"/>
<polygon fill="#000000" stroke="#000000" points="142.5001,-349.1025 139,-339.1025 135.5001,-349.1026 142.5001,-349.1025"/>
<text text-anchor="start" x="139" y="-350" font-family="Helvetica,sans-Serif" font-size="10.00" fill="#000000">pull &#160;&#160;</text>
</g>
<!-- review -->
<g id="node4" class="node">
<title>review</title>
<polygon fill="transparent" stroke="transparent" stroke-width="2" points="150,-245 0,-245 0,-199 150,-199 150,-245"/>
<text text-anchor="start" x="57.669" y="-228.2" font-family="Helvetica,sans-Serif" font-size="12.00" fill="#000000">review</text>
<text text-anchor="start" x="5.9838" y="-208.2" font-family="Helvetica,sans-Serif" font-size="12.00" fill="#000000">exit/ merge PR to develop</text>
<polygon fill="#000000" stroke="#000000" points="0,-222 0,-222 150,-222 150,-222 0,-222"/>
<path fill="none" stroke="#000000" stroke-width="2" d="M13,-200C13,-200 137,-200 137,-200 143,-200 149,-206 149,-212 149,-212 149,-232 149,-232 149,-238 143,-244 137,-244 137,-244 13,-244 13,-244 7,-244 1,-238 1,-232 1,-232 1,-212 1,-212 1,-206 7,-200 13,-200"/>
</g>
<!-- doing&#45;&gt;review -->
<g id="edge3" class="edge">
<title>doing&#45;&gt;review</title>
<path fill="none" stroke="#000000" d="M79.7247,-290.3345C57.5503,-283.1771 36.1625,-274.2415 29.76,-265 27.2029,-261.3091 26.659,-257.6864 27.5434,-254.2066"/>
<polygon fill="#000000" stroke="#000000" points="30.6928,-255.7595 32.8192,-245.3802 24.6843,-252.168 30.6928,-255.7595"/>
<text text-anchor="start" x="30" y="-256" font-family="Helvetica,sans-Serif" font-size="10.00" fill="#000000">functionality built &#160;&#160;</text>
</g>
<!-- review&#45;&gt;doing -->
<g id="edge4" class="edge">
<title>review&#45;&gt;doing</title>
<path fill="none" stroke="#000000" d="M105.9826,-245.2707C108.4977,-247.7432 110.8817,-250.3333 113,-253 115.6535,-256.3405 118.1315,-259.9958 120.4209,-263.7754"/>
<polygon fill="#000000" stroke="#000000" points="117.4871,-265.7008 125.4144,-272.73 123.6008,-262.2916 117.4871,-265.7008"/>
<text text-anchor="start" x="122" y="-256" font-family="Helvetica,sans-Serif" font-size="10.00" fill="#000000">[code quality not ok] &#160;&#160;</text>
</g>
<!-- QA -->
<g id="node5" class="node">
<title>QA</title>
<polygon fill="transparent" stroke="transparent" stroke-width="2" points="148,-159 92,-159 92,-123 148,-123 148,-159"/>
<text text-anchor="start" x="111.3312" y="-137.2" font-family="Helvetica,sans-Serif" font-size="12.00" fill="#000000">QA</text>
<path fill="none" stroke="#000000" stroke-width="2" d="M104.3333,-124C104.3333,-124 135.6667,-124 135.6667,-124 141.3333,-124 147,-129.6667 147,-135.3333 147,-135.3333 147,-146.6667 147,-146.6667 147,-152.3333 141.3333,-158 135.6667,-158 135.6667,-158 104.3333,-158 104.3333,-158 98.6667,-158 93,-152.3333 93,-146.6667 93,-146.6667 93,-135.3333 93,-135.3333 93,-129.6667 98.6667,-124 104.3333,-124"/>
</g>
<!-- review&#45;&gt;QA -->
<g id="edge5" class="edge">
<title>review&#45;&gt;QA</title>
<path fill="none" stroke="#000000" d="M18.7594,-198.8958C16.3545,-196.5091 14.2072,-193.8846 12.417,-191 6.7923,-181.9369 5.8196,-175.3817 12.417,-167 21.0321,-156.0548 54.3935,-149.1679 81.7094,-145.253"/>
<polygon fill="#000000" stroke="#000000" points="82.3729,-148.6954 91.8182,-143.8958 81.4414,-141.7577 82.3729,-148.6954"/>
<text text-anchor="start" x="13" y="-176" font-family="Helvetica,sans-Serif" font-size="10.00" fill="#000000">[code quality ok] &#160;&#160;</text>
</g>
<!-- review&#45;&gt;QA -->
<g id="edge6" class="edge">
<title>review&#45;&gt;QA</title>
<path fill="none" stroke="#000000" d="M89.4945,-198.7454C91.0415,-196.1476 92.5706,-193.5275 94,-191 98.1315,-183.6945 102.4135,-175.6708 106.2812,-168.2306"/>
<polygon fill="#000000" stroke="#000000" points="109.4561,-169.71 110.9164,-159.2163 103.2308,-166.509 109.4561,-169.71"/>
<text text-anchor="start" x="107" y="-182" font-family="Helvetica,sans-Serif" font-size="10.00" fill="#000000">[code has minor issues]/ &#160;&#160;</text>
<text text-anchor="start" x="107" y="-170" font-family="Helvetica,sans-Serif" font-size="10.00" fill="#000000">create tech debt item &#160;&#160;</text>
</g>
<!-- QA&#45;&gt;doing -->
<g id="edge7" class="edge">
<title>QA&#45;&gt;doing</title>
<path fill="none" stroke="#000000" d="M148.0276,-143.8472C176.6426,-147.4011 218.2134,-154.5777 228,-167 254.9767,-201.2418 248.1688,-228.7217 224,-265 219.529,-271.7111 213.6353,-277.3571 207.0312,-282.0996"/>
<polygon fill="#000000" stroke="#000000" points="204.8937,-279.3113 198.3396,-287.6357 208.6543,-285.2154 204.8937,-279.3113"/>
<text text-anchor="start" x="245" y="-219" font-family="Helvetica,sans-Serif" font-size="10.00" fill="#000000">[not acceptable] &#160;&#160;</text>
</g>
<!-- done -->
<g id="node6" class="node">
<title>done</title>
<polygon fill="transparent" stroke="transparent" stroke-width="2" points="148,-83 92,-83 92,-47 148,-47 148,-83"/>
<text text-anchor="start" x="106.6584" y="-61.2" font-family="Helvetica,sans-Serif" font-size="12.00" fill="#000000">done</text>
<path fill="none" stroke="#000000" stroke-width="2" d="M104.3333,-48C104.3333,-48 135.6667,-48 135.6667,-48 141.3333,-48 147,-53.6667 147,-59.3333 147,-59.3333 147,-70.6667 147,-70.6667 147,-76.3333 141.3333,-82 135.6667,-82 135.6667,-82 104.3333,-82 104.3333,-82 98.6667,-82 93,-76.3333 93,-70.6667 93,-70.6667 93,-59.3333 93,-59.3333 93,-53.6667 98.6667,-48 104.3333,-48"/>
</g>
<!-- QA&#45;&gt;done -->
<g id="edge8" class="edge">
<title>QA&#45;&gt;done</title>
<path fill="none" stroke="#000000" d="M91.8344,-133.8005C75.174,-128.9091 56.3977,-122.0651 51.523,-115 45.4653,-106.2203 45.4653,-99.7797 51.523,-91 55.4456,-85.3148 68.3698,-79.7728 81.9496,-75.2761"/>
<polygon fill="#000000" stroke="#000000" points="83.3264,-78.5133 91.8344,-72.1995 81.246,-71.8296 83.3264,-78.5133"/>
<text text-anchor="start" x="52" y="-106" font-family="Helvetica,sans-Serif" font-size="10.00" fill="#000000">[ok but issue(s) found]/ &#160;&#160;</text>
<text text-anchor="start" x="52" y="-94" font-family="Helvetica,sans-Serif" font-size="10.00" fill="#000000">create bug(s) &#160;&#160;</text>
</g>
<!-- QA&#45;&gt;done -->
<g id="edge9" class="edge">
<title>QA&#45;&gt;done</title>
<path fill="none" stroke="#000000" d="M148.3887,-128.9586C153.8381,-125.2983 158.8283,-120.6938 162,-115 167.1909,-105.6816 167.1909,-100.3184 162,-91 160.5132,-88.3311 158.6269,-85.9014 156.4811,-83.6962"/>
<polygon fill="#000000" stroke="#000000" points="158.3356,-80.6898 148.3887,-77.0414 153.8893,-86.0964 158.3356,-80.6898"/>
<text text-anchor="start" x="166" y="-100" font-family="Helvetica,sans-Serif" font-size="10.00" fill="#000000">[okie dokie] &#160;&#160;</text>
</g>
<!-- final -->
<g id="node7" class="node">
<title>final</title>
<ellipse fill="#000000" stroke="#000000" stroke-width="2" cx="120" cy="-9.5" rx="5.5" ry="5.5"/>
<ellipse fill="none" stroke="#000000" stroke-width="2" cx="120" cy="-9.5" rx="9.5" ry="9.5"/>
</g>
<!-- done&#45;&gt;final -->
<g id="edge10" class="edge">
<title>done&#45;&gt;final</title>
<path fill="none" stroke="#000000" d="M120,-46.8272C120,-41.202 120,-34.9783 120,-29.2515"/>
<polygon fill="#000000" stroke="#000000" points="123.5001,-29.1396 120,-19.1396 116.5001,-29.1397 123.5001,-29.1396"/>
<text text-anchor="middle" x="121.3895" y="-30" font-family="Helvetica,sans-Serif" font-size="10.00" fill="#000000"> </text>
</g>
</g>
</svg>
